<mxfile host="app.diagrams.net" modified="2021-04-06T21:17:40.048Z" agent="5.0 (Windows NT 10.0; Win64; x64) AppleWebKit/537.36 (KHTML, like Gecko) Chrome/89.0.4389.114 Safari/537.36" etag="botqGQuQ3su6SHXmzGc-" version="14.5.8" type="github">
  <diagram name="Page-1" id="74e2e168-ea6b-b213-b513-2b3c1d86103e">
    <mxGraphModel dx="1038" dy="584" grid="1" gridSize="10" guides="1" tooltips="1" connect="1" arrows="1" fold="1" page="1" pageScale="1" pageWidth="1100" pageHeight="850" background="#ffffff" math="0" shadow="0">
      <root>
        <mxCell id="0" />
        <mxCell id="1" parent="0" />
        <mxCell id="MZQw4CxkcWhRret7eLtc-27" value="" style="edgeStyle=orthogonalEdgeStyle;rounded=0;orthogonalLoop=1;jettySize=auto;html=1;" edge="1" parent="1" source="MZQw4CxkcWhRret7eLtc-1">
          <mxGeometry relative="1" as="geometry">
            <mxPoint x="160" y="170" as="targetPoint" />
          </mxGeometry>
        </mxCell>
        <mxCell id="MZQw4CxkcWhRret7eLtc-1" value="Cliente chega com o veículo" style="strokeWidth=2;html=1;shape=mxgraph.flowchart.start_1;whiteSpace=wrap;" vertex="1" parent="1">
          <mxGeometry x="30" y="140" width="100" height="60" as="geometry" />
        </mxCell>
        <mxCell id="MZQw4CxkcWhRret7eLtc-5" value="" style="edgeStyle=orthogonalEdgeStyle;rounded=0;orthogonalLoop=1;jettySize=auto;html=1;exitX=1;exitY=0.5;exitDx=0;exitDy=0;" edge="1" parent="1" source="MZQw4CxkcWhRret7eLtc-6" target="MZQw4CxkcWhRret7eLtc-4">
          <mxGeometry relative="1" as="geometry">
            <mxPoint x="480" y="170" as="sourcePoint" />
          </mxGeometry>
        </mxCell>
        <mxCell id="MZQw4CxkcWhRret7eLtc-11" value="" style="edgeStyle=orthogonalEdgeStyle;rounded=0;orthogonalLoop=1;jettySize=auto;html=1;" edge="1" parent="1" source="MZQw4CxkcWhRret7eLtc-4" target="MZQw4CxkcWhRret7eLtc-10">
          <mxGeometry relative="1" as="geometry" />
        </mxCell>
        <mxCell id="MZQw4CxkcWhRret7eLtc-4" value="camara acionada para identificar a matricula do carro" style="whiteSpace=wrap;html=1;strokeWidth=2;" vertex="1" parent="1">
          <mxGeometry x="560" y="140" width="120" height="60" as="geometry" />
        </mxCell>
        <mxCell id="MZQw4CxkcWhRret7eLtc-6" value="&lt;span&gt;detetor veículos&amp;nbsp;acionado&lt;/span&gt;" style="whiteSpace=wrap;html=1;strokeWidth=2;" vertex="1" parent="1">
          <mxGeometry x="370" y="140" width="120" height="60" as="geometry" />
        </mxCell>
        <mxCell id="MZQw4CxkcWhRret7eLtc-12" style="edgeStyle=orthogonalEdgeStyle;rounded=0;orthogonalLoop=1;jettySize=auto;html=1;exitX=0.5;exitY=1;exitDx=0;exitDy=0;entryX=0.5;entryY=1;entryDx=0;entryDy=0;" edge="1" parent="1" source="MZQw4CxkcWhRret7eLtc-10" target="MZQw4CxkcWhRret7eLtc-4">
          <mxGeometry relative="1" as="geometry" />
        </mxCell>
        <mxCell id="MZQw4CxkcWhRret7eLtc-15" value="" style="edgeStyle=orthogonalEdgeStyle;rounded=0;orthogonalLoop=1;jettySize=auto;html=1;" edge="1" parent="1" source="MZQw4CxkcWhRret7eLtc-10" target="MZQw4CxkcWhRret7eLtc-14">
          <mxGeometry relative="1" as="geometry" />
        </mxCell>
        <mxCell id="MZQw4CxkcWhRret7eLtc-10" value="Matricula detectada" style="rhombus;whiteSpace=wrap;html=1;strokeWidth=2;" vertex="1" parent="1">
          <mxGeometry x="734" y="130" width="80" height="80" as="geometry" />
        </mxCell>
        <mxCell id="MZQw4CxkcWhRret7eLtc-13" value="Não" style="text;html=1;strokeColor=none;fillColor=none;align=center;verticalAlign=middle;whiteSpace=wrap;rounded=0;" vertex="1" parent="1">
          <mxGeometry x="664" y="210" width="40" height="20" as="geometry" />
        </mxCell>
        <mxCell id="MZQw4CxkcWhRret7eLtc-18" value="" style="edgeStyle=orthogonalEdgeStyle;rounded=0;orthogonalLoop=1;jettySize=auto;html=1;" edge="1" parent="1" source="MZQw4CxkcWhRret7eLtc-14" target="MZQw4CxkcWhRret7eLtc-17">
          <mxGeometry relative="1" as="geometry" />
        </mxCell>
        <mxCell id="MZQw4CxkcWhRret7eLtc-14" value="Abertura da cancela" style="whiteSpace=wrap;html=1;strokeWidth=2;" vertex="1" parent="1">
          <mxGeometry x="880" y="140" width="120" height="60" as="geometry" />
        </mxCell>
        <mxCell id="MZQw4CxkcWhRret7eLtc-16" value="Sim" style="text;html=1;strokeColor=none;fillColor=none;align=center;verticalAlign=middle;whiteSpace=wrap;rounded=0;" vertex="1" parent="1">
          <mxGeometry x="814" y="150" width="40" height="20" as="geometry" />
        </mxCell>
        <mxCell id="MZQw4CxkcWhRret7eLtc-20" value="" style="edgeStyle=orthogonalEdgeStyle;rounded=0;orthogonalLoop=1;jettySize=auto;html=1;" edge="1" parent="1" source="MZQw4CxkcWhRret7eLtc-17" target="MZQw4CxkcWhRret7eLtc-19">
          <mxGeometry relative="1" as="geometry" />
        </mxCell>
        <mxCell id="MZQw4CxkcWhRret7eLtc-17" value="Cliente escolhe o seu estacionamento" style="whiteSpace=wrap;html=1;strokeWidth=2;" vertex="1" parent="1">
          <mxGeometry x="880" y="400" width="120" height="60" as="geometry" />
        </mxCell>
        <mxCell id="MZQw4CxkcWhRret7eLtc-22" value="" style="edgeStyle=orthogonalEdgeStyle;rounded=0;orthogonalLoop=1;jettySize=auto;html=1;" edge="1" parent="1" source="MZQw4CxkcWhRret7eLtc-19" target="MZQw4CxkcWhRret7eLtc-21">
          <mxGeometry relative="1" as="geometry" />
        </mxCell>
        <mxCell id="MZQw4CxkcWhRret7eLtc-19" value="Detetor de estacionamento acionado&amp;nbsp;" style="whiteSpace=wrap;html=1;strokeWidth=2;" vertex="1" parent="1">
          <mxGeometry x="600" y="400" width="120" height="60" as="geometry" />
        </mxCell>
        <mxCell id="MZQw4CxkcWhRret7eLtc-24" value="" style="edgeStyle=orthogonalEdgeStyle;rounded=0;orthogonalLoop=1;jettySize=auto;html=1;" edge="1" parent="1" source="MZQw4CxkcWhRret7eLtc-21" target="MZQw4CxkcWhRret7eLtc-23">
          <mxGeometry relative="1" as="geometry" />
        </mxCell>
        <mxCell id="MZQw4CxkcWhRret7eLtc-21" value="sensor de distancia deteta lugar ocupado" style="whiteSpace=wrap;html=1;strokeWidth=2;" vertex="1" parent="1">
          <mxGeometry x="400" y="400" width="120" height="60" as="geometry" />
        </mxCell>
        <mxCell id="MZQw4CxkcWhRret7eLtc-37" value="" style="edgeStyle=orthogonalEdgeStyle;rounded=0;orthogonalLoop=1;jettySize=auto;html=1;" edge="1" parent="1" source="MZQw4CxkcWhRret7eLtc-23" target="MZQw4CxkcWhRret7eLtc-36">
          <mxGeometry relative="1" as="geometry" />
        </mxCell>
        <mxCell id="MZQw4CxkcWhRret7eLtc-23" value="Detetor de estacionamento comunica com a interface web&amp;nbsp;" style="whiteSpace=wrap;html=1;strokeWidth=2;" vertex="1" parent="1">
          <mxGeometry x="200" y="400" width="120" height="60" as="geometry" />
        </mxCell>
        <mxCell id="MZQw4CxkcWhRret7eLtc-28" value="" style="edgeStyle=orthogonalEdgeStyle;rounded=0;orthogonalLoop=1;jettySize=auto;html=1;" edge="1" parent="1" target="MZQw4CxkcWhRret7eLtc-6">
          <mxGeometry relative="1" as="geometry">
            <mxPoint x="320" y="170" as="sourcePoint" />
          </mxGeometry>
        </mxCell>
        <mxCell id="MZQw4CxkcWhRret7eLtc-30" value="" style="edgeStyle=orthogonalEdgeStyle;rounded=0;orthogonalLoop=1;jettySize=auto;html=1;entryX=0.5;entryY=0;entryDx=0;entryDy=0;entryPerimeter=0;" edge="1" parent="1" target="MZQw4CxkcWhRret7eLtc-35">
          <mxGeometry relative="1" as="geometry">
            <mxPoint x="240" y="240" as="sourcePoint" />
            <mxPoint x="240" y="300" as="targetPoint" />
          </mxGeometry>
        </mxCell>
        <mxCell id="MZQw4CxkcWhRret7eLtc-26" value="Verifica se existe na plataforma web disponibilidade&amp;nbsp;" style="rhombus;whiteSpace=wrap;html=1;" vertex="1" parent="1">
          <mxGeometry x="160" y="100" width="160" height="140" as="geometry" />
        </mxCell>
        <mxCell id="MZQw4CxkcWhRret7eLtc-32" value="Sim" style="text;html=1;strokeColor=none;fillColor=none;align=center;verticalAlign=middle;whiteSpace=wrap;rounded=0;" vertex="1" parent="1">
          <mxGeometry x="320" y="150" width="40" height="20" as="geometry" />
        </mxCell>
        <mxCell id="MZQw4CxkcWhRret7eLtc-33" value="Não" style="text;html=1;strokeColor=none;fillColor=none;align=center;verticalAlign=middle;whiteSpace=wrap;rounded=0;" vertex="1" parent="1">
          <mxGeometry x="240" y="260" width="40" height="20" as="geometry" />
        </mxCell>
        <mxCell id="MZQw4CxkcWhRret7eLtc-35" value="" style="strokeWidth=2;html=1;shape=mxgraph.flowchart.terminator;whiteSpace=wrap;fillColor=#E2E3E3;" vertex="1" parent="1">
          <mxGeometry x="220" y="300" width="40" height="20" as="geometry" />
        </mxCell>
        <mxCell id="MZQw4CxkcWhRret7eLtc-36" value="" style="strokeWidth=2;html=1;shape=mxgraph.flowchart.terminator;whiteSpace=wrap;fillColor=#E2E3E3;" vertex="1" parent="1">
          <mxGeometry x="70" y="420" width="40" height="20" as="geometry" />
        </mxCell>
      </root>
    </mxGraphModel>
  </diagram>
</mxfile>
